<svg xmlns="http://www.w3.org/2000/svg" xmlns:xlink="http://www.w3.org/1999/xlink" preserveAspectRatio="xMidYMid" width="204" height="99" viewBox="0 0 204 99">
  <defs>
    <style>
      .cls-1 {
        fill: #fff;
        fill-rule: evenodd;
      }
    </style>
  </defs>
  <path d="M204.000,89.421 L203.422,91.763 C203.264,91.725 203.045,91.706 202.783,91.706 C201.999,91.706 200.844,92.160 200.308,92.745 L198.823,98.770 L196.453,98.770 L198.701,89.648 L201.070,89.648 L200.762,90.894 C201.597,90.083 202.880,89.421 204.000,89.421 ZM191.730,98.770 L192.014,97.618 C191.227,98.316 189.975,98.996 188.502,98.996 C186.524,98.996 185.862,97.900 186.299,96.125 L187.895,89.648 L190.264,89.648 L188.901,95.181 C188.589,96.446 189.140,96.863 190.148,96.863 C191.061,96.863 191.915,96.352 192.455,95.822 L193.978,89.648 L196.347,89.648 L194.100,98.770 L191.730,98.770 ZM182.423,91.554 C180.986,91.554 179.718,92.613 179.327,94.199 C178.936,95.785 179.678,96.863 181.115,96.863 C181.936,96.863 182.682,96.485 183.261,95.880 L184.451,97.335 C183.644,98.184 182.324,98.996 180.478,98.996 C177.698,98.996 176.190,97.013 176.882,94.199 C177.572,91.404 180.058,89.421 182.836,89.421 C184.684,89.421 185.604,90.234 185.996,91.064 L184.084,92.537 C183.813,91.895 183.243,91.554 182.423,91.554 ZM175.969,34.001 C173.512,34.001 171.384,32.182 170.916,29.741 C164.766,29.948 154.502,30.096 144.001,30.141 C144.148,29.576 144.249,28.996 144.285,28.405 C144.304,28.062 144.301,27.724 144.281,27.388 C154.661,27.435 164.809,27.583 170.916,27.787 C171.382,25.346 173.512,23.527 175.969,23.527 C178.823,23.527 181.142,25.879 181.142,28.762 C181.142,31.652 178.823,34.001 175.969,34.001 ZM159.859,15.281 C158.802,15.281 157.841,14.875 157.116,14.210 C153.555,16.707 149.658,19.344 146.087,21.500 C145.554,21.822 143.966,22.826 143.048,23.407 C142.989,23.306 142.924,23.214 142.863,23.118 C142.848,23.102 142.842,23.086 142.826,23.070 C142.410,22.439 141.918,21.857 141.339,21.340 C142.145,20.843 144.103,19.613 144.697,19.234 C148.168,16.955 152.208,14.587 155.986,12.467 C155.845,12.048 155.766,11.603 155.766,11.144 C155.766,8.851 157.597,6.999 159.859,6.999 C162.121,6.999 163.953,8.851 163.953,11.144 C163.953,13.429 162.121,15.281 159.859,15.281 ZM135.221,11.342 C135.328,13.779 135.416,16.301 135.438,18.752 C135.001,18.704 134.554,18.673 134.099,18.673 C133.508,18.673 132.927,18.723 132.355,18.807 C132.465,16.338 132.669,13.802 132.866,11.351 C130.293,10.808 128.352,8.497 128.352,5.733 C128.352,2.566 130.894,-0.002 134.028,-0.002 C137.159,-0.002 139.697,2.566 139.697,5.733 C139.697,8.488 137.781,10.788 135.221,11.342 ZM125.531,22.243 C125.454,22.318 125.387,22.398 125.315,22.472 C125.253,22.547 125.184,22.613 125.119,22.689 C125.069,22.749 125.020,22.808 124.964,22.862 C124.896,22.952 124.832,23.034 124.768,23.116 C124.697,23.205 124.630,23.294 124.566,23.382 C124.488,23.487 124.422,23.588 124.347,23.695 C124.278,23.790 124.216,23.894 124.151,23.996 C124.127,24.031 124.097,24.074 124.071,24.118 L117.603,19.055 C117.603,19.055 113.657,15.960 113.448,15.797 C113.028,16.114 112.596,16.343 112.143,16.430 C111.284,16.605 110.413,16.424 109.691,15.926 C108.966,15.435 108.471,14.687 108.307,13.816 C108.263,13.606 108.246,13.392 108.246,13.180 C108.246,12.530 108.430,11.892 108.805,11.342 C109.292,10.604 110.029,10.110 110.891,9.945 C112.665,9.593 114.380,10.761 114.724,12.552 L114.788,13.186 C114.788,13.429 114.732,13.694 114.661,13.975 C116.574,15.116 120.026,17.418 125.765,21.937 L125.805,21.962 C125.745,22.019 125.699,22.075 125.641,22.131 C125.602,22.168 125.564,22.205 125.531,22.243 ZM122.707,28.405 C122.660,29.064 122.685,29.706 122.787,30.332 C113.572,30.267 89.083,29.974 81.206,29.786 C80.364,32.090 77.886,33.827 75.033,33.827 C71.626,33.827 69.013,31.341 69.240,28.377 C69.411,25.330 72.309,22.841 75.714,22.841 C78.880,22.841 81.305,24.992 81.500,27.733 C89.530,27.545 113.566,27.246 122.871,27.180 C122.793,27.583 122.729,27.989 122.707,28.405 ZM78.060,45.784 L69.648,77.736 L57.658,77.736 L64.783,50.506 L59.912,45.784 L78.060,45.784 ZM47.883,59.864 C50.037,53.818 47.883,53.818 47.883,53.818 C45.990,53.818 43.020,57.379 42.576,59.030 L37.896,77.736 L26.703,77.736 L33.469,51.418 L27.019,45.784 L45.862,45.784 L45.165,49.679 C47.061,48.026 51.236,45.622 54.968,45.622 C61.041,45.622 58.064,55.061 56.545,59.864 L47.883,59.864 ZM23.138,42.443 L13.850,77.736 L0.723,77.736 L10.138,42.443 L-0.000,42.443 L2.673,32.409 L35.362,32.409 L32.689,42.443 L23.138,42.443 ZM79.946,45.784 L100.366,45.784 L99.099,50.840 C100.936,49.183 103.969,45.949 110.421,45.949 C116.302,45.949 116.997,49.515 116.997,52.745 C116.997,56.053 114.088,67.719 112.443,70.946 C110.865,74.176 108.146,77.736 102.327,77.736 C96.068,77.736 94.484,74.755 93.536,73.099 L89.828,85.622 L78.389,85.622 L87.152,51.997 L79.946,45.784 ZM97.964,70.534 C100.873,70.783 102.264,66.477 102.578,65.402 L104.097,58.622 C104.351,57.543 105.682,53.243 102.766,53.073 C100.807,52.989 97.650,56.301 97.203,58.039 L95.625,65.153 C95.181,66.809 96.068,70.450 97.964,70.534 ZM98.548,91.744 L99.065,89.648 L100.556,89.648 L100.678,89.156 C101.157,87.212 102.693,85.985 104.501,85.985 C105.360,85.985 106.218,86.212 106.642,86.834 L105.398,88.251 C105.216,88.005 104.931,87.873 104.503,87.873 C103.849,87.873 103.275,88.307 103.067,89.156 L102.946,89.648 L104.775,89.648 L104.258,91.744 L102.428,91.744 L100.698,98.770 L98.310,98.770 L100.040,91.744 L98.548,91.744 ZM108.880,89.648 L108.572,90.894 C109.407,90.083 110.689,89.421 111.809,89.421 L111.232,91.763 C111.074,91.725 110.854,91.706 110.593,91.706 C109.810,91.706 108.653,92.160 108.117,92.745 L106.632,98.770 L104.263,98.770 L106.510,89.648 L108.880,89.648 ZM117.464,89.421 C120.450,89.421 121.701,91.611 121.062,94.199 C120.421,96.805 118.090,98.996 115.105,98.996 C112.137,98.996 110.886,96.805 111.529,94.199 C112.166,91.611 114.497,89.421 117.464,89.421 ZM115.631,96.863 C117.104,96.863 118.246,95.635 118.600,94.199 C118.950,92.783 118.412,91.554 116.938,91.554 C115.464,91.554 114.342,92.783 113.992,94.199 C113.639,95.635 114.156,96.863 115.631,96.863 ZM125.937,89.648 L125.644,90.837 C126.152,90.291 127.560,89.421 128.940,89.421 C130.264,89.421 130.952,90.045 131.031,91.083 C131.758,90.252 133.158,89.421 134.538,89.421 C136.199,89.421 136.970,90.309 136.508,92.178 L134.883,98.770 L132.496,98.770 L133.914,93.009 C134.125,92.160 133.900,91.554 132.929,91.554 C132.091,91.554 131.260,92.122 130.803,92.613 L129.287,98.770 L126.898,98.770 L128.318,93.009 C128.527,92.160 128.303,91.554 127.331,91.554 C126.512,91.554 125.681,92.122 125.202,92.632 L123.690,98.770 L121.319,98.770 L123.566,89.648 L125.937,89.648 ZM119.249,77.736 C119.249,77.736 127.128,48.200 127.188,47.988 C127.020,47.832 122.051,43.012 122.051,43.012 L140.932,43.012 L131.641,77.736 L119.249,77.736 ZM132.396,20.935 C132.909,20.848 133.436,20.796 133.970,20.796 C134.424,20.796 134.863,20.844 135.294,20.904 C139.285,21.483 142.129,24.617 141.912,28.389 C141.682,32.463 137.708,35.870 133.031,35.870 C128.352,35.870 124.768,32.463 125.087,28.389 C125.292,24.690 128.432,21.597 132.396,20.935 ZM119.833,39.973 C119.833,42.206 118.101,44.021 115.897,44.113 C113.640,44.194 111.732,42.408 111.645,40.132 C111.600,39.023 111.986,37.964 112.729,37.159 C113.477,36.343 114.485,35.876 115.580,35.830 C116.684,35.791 117.717,36.207 118.526,36.990 C120.052,35.966 121.889,34.780 124.004,33.465 C124.031,33.505 124.061,33.539 124.083,33.578 C124.155,33.681 124.223,33.785 124.299,33.883 C124.341,33.942 124.380,34.001 124.428,34.052 C124.531,34.201 124.649,34.344 124.768,34.482 C124.801,34.518 124.832,34.549 124.870,34.587 C124.964,34.701 125.064,34.804 125.173,34.914 C125.218,34.960 125.262,35.006 125.315,35.053 C125.416,35.157 125.532,35.260 125.644,35.360 C125.672,35.385 125.699,35.410 125.727,35.438 C124.697,36.039 123.683,36.694 122.763,37.234 C121.077,38.225 119.763,38.942 119.690,38.989 C119.755,39.276 119.816,39.559 119.833,39.808 L119.833,39.973 ZM140.100,35.655 C140.148,35.617 140.202,35.575 140.254,35.534 C140.409,35.410 140.564,35.287 140.720,35.157 C140.723,35.154 140.728,35.152 140.735,35.149 C140.848,35.041 140.967,34.945 141.080,34.833 C141.104,34.815 141.127,34.803 141.141,34.780 C141.241,34.685 141.339,34.593 141.433,34.500 C141.475,34.460 141.513,34.418 141.549,34.379 C141.610,34.315 141.673,34.251 141.737,34.187 L141.730,34.187 C141.763,34.155 141.796,34.116 141.832,34.081 C142.487,34.602 143.135,35.213 143.766,35.762 C144.148,35.541 144.595,35.414 145.069,35.414 C146.531,35.414 147.709,36.611 147.709,38.088 C147.709,39.565 146.531,40.764 145.069,40.764 C143.603,40.764 142.421,39.565 142.421,38.088 C142.421,37.775 142.479,37.480 142.570,37.205 C141.763,36.698 140.937,36.188 140.100,35.655 ZM151.235,85.965 C153.978,85.965 155.191,87.476 155.681,89.044 L153.127,90.176 C152.856,89.156 151.936,88.345 150.648,88.345 C148.391,88.345 146.316,90.101 145.729,92.481 C145.144,94.861 146.353,96.616 148.610,96.616 C149.897,96.616 151.212,95.822 151.991,94.785 L153.992,95.899 C152.711,97.467 150.767,98.996 148.024,98.996 C144.292,98.996 142.052,96.352 143.006,92.481 C143.959,88.609 147.503,85.965 151.235,85.965 ZM161.302,89.421 C164.286,89.421 165.538,91.611 164.900,94.199 C164.258,96.805 161.928,98.996 158.942,98.996 C155.975,98.996 154.723,96.805 155.366,94.199 C156.004,91.611 158.334,89.421 161.302,89.421 ZM159.467,96.863 C160.941,96.863 162.083,95.635 162.437,94.199 C162.785,92.783 162.249,91.554 160.774,91.554 C159.302,91.554 158.178,92.783 157.828,94.199 C157.475,95.635 157.994,96.863 159.467,96.863 ZM164.629,72.507 C165.031,72.337 165.465,72.253 165.918,72.253 C166.374,72.253 166.805,72.337 167.204,72.507 C167.601,72.670 167.959,72.904 168.257,73.207 C168.558,73.509 168.795,73.861 168.980,74.264 C169.153,74.674 169.245,75.114 169.245,75.585 C169.245,76.063 169.153,76.511 168.980,76.921 C168.795,77.332 168.558,77.685 168.257,77.993 C167.959,78.297 167.601,78.528 167.204,78.695 C166.805,78.862 166.374,78.949 165.918,78.949 C165.465,78.949 165.031,78.862 164.629,78.695 C164.225,78.528 163.867,78.297 163.568,77.993 C163.262,77.685 163.023,77.332 162.842,76.921 C162.668,76.511 162.580,76.063 162.580,75.585 C162.580,75.114 162.668,74.674 162.842,74.264 C163.023,73.861 163.262,73.509 163.568,73.207 C163.867,72.904 164.225,72.670 164.629,72.507 ZM163.184,75.585 C163.184,75.996 163.253,76.373 163.387,76.721 C163.529,77.075 163.721,77.380 163.967,77.636 C164.213,77.890 164.504,78.097 164.829,78.234 C165.170,78.386 165.527,78.462 165.918,78.462 C166.306,78.462 166.658,78.386 166.986,78.234 C167.318,78.097 167.611,77.890 167.856,77.636 C168.098,77.380 168.291,77.075 168.436,76.721 C168.572,76.373 168.638,75.996 168.638,75.585 C168.638,75.183 168.572,74.810 168.436,74.465 C168.291,74.112 168.098,73.814 167.856,73.564 C167.611,73.312 167.318,73.108 166.986,72.960 C166.658,72.819 166.306,72.744 165.918,72.744 C165.527,72.744 165.170,72.819 164.829,72.960 C164.504,73.108 164.213,73.312 163.967,73.564 C163.721,73.814 163.529,74.112 163.387,74.465 C163.253,74.810 163.184,75.183 163.184,75.585 ZM167.052,74.045 C167.254,74.207 167.358,74.473 167.358,74.826 C167.358,75.150 167.272,75.388 167.090,75.537 C166.907,75.689 166.687,75.779 166.417,75.804 L167.444,77.412 L166.843,77.412 L165.869,75.848 L165.270,75.848 L165.270,77.412 L164.715,77.412 L164.715,73.791 L166.108,73.791 C166.529,73.791 166.843,73.868 167.052,74.045 ZM165.270,74.240 L165.270,75.394 L165.860,75.394 C165.988,75.394 166.108,75.388 166.219,75.387 C166.328,75.375 166.428,75.352 166.516,75.307 C166.603,75.271 166.678,75.214 166.721,75.133 C166.773,75.052 166.803,74.945 166.803,74.795 C166.803,74.680 166.773,74.583 166.731,74.508 C166.688,74.436 166.628,74.379 166.554,74.340 C166.481,74.305 166.390,74.273 166.297,74.254 C166.204,74.243 166.108,74.240 166.018,74.240 L165.270,74.240 ZM167.803,50.125 L161.937,50.125 C161.543,51.764 157.123,67.549 157.012,69.086 C157.010,69.140 157.008,69.190 157.008,69.238 C157.008,70.445 157.742,71.294 159.141,71.704 L159.325,71.754 L157.725,78.296 L150.453,78.296 C148.384,78.296 146.550,77.520 145.412,76.159 C144.565,75.147 144.130,73.844 144.130,72.323 C144.130,71.851 144.174,71.362 144.260,70.853 C144.260,70.853 149.832,50.385 149.932,49.920 L143.943,49.920 L145.742,42.969 L151.987,42.969 C152.301,41.669 152.649,40.446 152.895,39.630 C152.895,39.630 153.102,38.891 153.119,38.851 C153.185,38.719 153.390,38.607 154.433,38.118 C155.672,37.540 157.540,36.665 158.728,35.733 C159.785,34.827 160.780,33.656 161.514,32.807 C161.831,32.432 162.044,32.190 162.198,32.019 L167.051,32.019 C166.566,33.788 164.148,42.540 164.035,42.969 L169.714,42.969 L167.803,50.125 ZM170.147,89.648 L169.855,90.837 C170.606,90.139 171.882,89.421 173.356,89.421 C175.334,89.421 176.007,90.554 175.569,92.330 L173.983,98.770 L171.612,98.770 L172.971,93.255 C173.283,91.989 172.736,91.554 171.730,91.554 C170.797,91.554 169.938,92.084 169.412,92.632 L167.900,98.770 L165.531,98.770 L167.778,89.648 L170.147,89.648 Z" class="cls-1"/>
</svg>
